<svg xmlns="http://www.w3.org/2000/svg" version="1.1" xmlns:xlink="http://www.w3.org/1999/xlink" xmlns:svgjs="http://svgjs.dev/svgjs" width="300" height="250" viewBox="0 0 1000 991"><g transform="matrix(1,0,0,1,0.9469205512926919,0.4019554656759965)"><svg viewBox="0 0 249 247" data-background-color="#ffffff" preserveAspectRatio="xMidYMid meet" height="991" width="1000" xmlns="http://www.w3.org/2000/svg" xmlns:xlink="http://www.w3.org/1999/xlink"><g id="tight-bounds" transform="matrix(1,0,0,1,-0.2355927840020513,-0.09997365579206985)"><svg viewBox="0 0 249.47113745293464 247.2" height="247.2" width="249.47113745293464"><g><svg viewBox="0 0 249.47113745293464 247.2" height="247.2" width="249.47113745293464"><g><svg viewBox="0 0 249.47113745293464 247.2" height="247.2" width="249.47113745293464"><g id="textblocktransform"><svg viewBox="0 0 249.47113745293464 247.2" height="247.2" width="249.47113745293464" id="textblock"><g><svg viewBox="0 0 249.47113745293464 247.2" height="247.2" width="249.47113745293464"><path d="M248.887 53.02C247.714 27.36 244.372 20.227 244.372 20.227 234.11-6.202 221.302-0.506 209.797 3.292 189.484 3.446 169.253 9.091 148.986 12.119 106.448 12.581 63.547 4.986 21.22 23.717 17.244 29.464-4.125 24.846 0.707 56.304 1.974 69.39 6.595 83.913 6.454 95.922 7.087 98.026 7.967 93.202 8.342 96.23 9.656 104.39 11.802 100.541 13.561 105.365 11.11 118.246 12.869 128.971 14.546 140.21 11.591 143.135 7.803 141.749 6.102 151.449 5.926 158.479 4.976 157.145 3.932 156.837 3.17 156.632 1.634 157.402 1.892 159.608 2.771 167.152-1.005 171.514 1.364 178.904-0.266 186.91 2.49 193.838 2.115 202.511 2.068 204.255 2.326 205.744 2.736 206.154 4.554 208.361 1.903 212.672 2.185 217.342 20.833 249.262 41.064 227.195 60.169 241.872 65.13 231.608 61.4 245.516 63.383 243.36 64.931 240.846 66.057 251.263 67.804 245.362 68.074 243.668 67.663 239.665 68.625 240.435 69.129 240.846 69.575 240.743 69.645 238.382 69.751 234.841 68.824 237.048 68.578 235.201 71.24 225.861 70.584 248.081 73.082 247.158 72.964 244.438 72.237 240.538 73.727 241.051 75.205 237.151 75.251 233.918 76.565 242.693 76.612 244.592 76.846 245.926 77.222 246.85 81.327 237.305 85.408 250.237 89.712 245.926 92.351 241.205 94.884 248.492 97.558 246.696 98.497 245.259 99.447 242.693 100.35 247.004 111.409 247.928 123.196 244.079 133.681 247.158 161.7 241.41 191.642 249.518 221.185 241.923 228.152 238.998 235.388 234.841 242.179 231.506 242.179 231.506 247.679 222.371 247.679 181.316S248.852 145.393 249.028 112.703C249.204 80.013 250.025 78.679 248.852 53.02Z" opacity="1" fill="#ee3e38" data-fill-palette-color="tertiary"></path><g transform="matrix(1,0,0,1,55.76832,26.230666666666668)"><svg width="137.93449745293464" viewBox="1.7100000381469727 -36.25 26.020000457763672 36.7400016784668" height="194.73866666666666" data-palette-color="#ffffff"><path d="M13.18-5.35L13.18-5.35Q14.16-5.35 15.12-5.54 16.09-5.74 16.83-6.2 17.58-6.67 18.04-7.4 18.51-8.13 18.51-9.2L18.51-9.2Q18.51-10.5 17.83-11.4 17.16-12.3 16.06-13 14.97-13.7 13.57-14.28 12.18-14.87 10.72-15.5 9.25-16.14 7.86-16.93 6.47-17.72 5.37-18.85 4.27-19.97 3.6-21.52 2.93-23.07 2.93-25.22L2.93-25.22Q2.93-27.73 3.91-29.79 4.88-31.84 6.69-33.26 8.5-34.69 11.08-35.47 13.67-36.25 16.87-36.25L16.87-36.25Q17.7-36.25 18.86-36.19 20.02-36.13 21.33-35.99 22.63-35.84 24-35.61 25.37-35.38 26.64-35.03L26.64-35.03 25.22-28.81 24.8-28.61Q23.73-29.1 22.63-29.44 21.53-29.79 20.5-30 19.46-30.22 18.54-30.32 17.63-30.42 16.92-30.42L16.92-30.42Q14.72-30.42 13.43-29.54 12.13-28.66 12.13-26.9L12.13-26.9Q12.13-25.63 12.81-24.76 13.48-23.88 14.58-23.19 15.67-22.51 17.08-21.95 18.48-21.39 19.93-20.74 21.39-20.09 22.79-19.3 24.19-18.51 25.29-17.37 26.39-16.24 27.06-14.66 27.73-13.09 27.73-10.91L27.73-10.91Q27.73-8.33 26.75-6.23 25.76-4.13 23.9-2.64 22.05-1.15 19.38-0.33 16.72 0.49 13.4 0.49L13.4 0.49Q12.21 0.49 10.8 0.37 9.4 0.24 7.87-0.02 6.35-0.29 4.79-0.73 3.22-1.17 1.71-1.83L1.71-1.83 3.1-8.08 3.61-8.33Q5.05-7.67 6.31-7.13 7.57-6.59 8.73-6.19 9.89-5.79 10.99-5.57 12.08-5.35 13.18-5.35Z" opacity="1" transform="matrix(1,0,0,1,0,0)" fill="#ffffff" class="undefined-text-0" data-fill-palette-color="quaternary" id="text-0"></path></svg></g></svg></g></svg></g></svg></g><g></g></svg></g><defs></defs></svg><rect width="249.47113745293464" height="247.2" fill="none" stroke="none" visibility="hidden"></rect></g></svg></g></svg>